<mxfile host="65bd71144e">
    <diagram id="47A9uAxiZOzFFANPaknb" name="Page-1">
        <mxGraphModel dx="810" dy="765" grid="1" gridSize="10" guides="1" tooltips="1" connect="1" arrows="1" fold="1" page="1" pageScale="1" pageWidth="1169" pageHeight="827" math="0" shadow="0">
            <root>
                <mxCell id="0"/>
                <mxCell id="1" parent="0"/>
                <mxCell id="B294uS0uLDPBbTm5qbC--29" value="&lt;div align=&quot;left&quot;&gt;&lt;b&gt;minikube&lt;/b&gt;&lt;/div&gt;&lt;div align=&quot;left&quot;&gt;&lt;b&gt;&lt;br&gt;&lt;/b&gt;&lt;/div&gt;&lt;div align=&quot;left&quot;&gt;&lt;b&gt;&lt;br&gt;&lt;/b&gt;&lt;/div&gt;&lt;div align=&quot;left&quot;&gt;&lt;b&gt;&lt;br&gt;&lt;/b&gt;&lt;/div&gt;&lt;div align=&quot;left&quot;&gt;&lt;b&gt;&lt;br&gt;&lt;/b&gt;&lt;/div&gt;&lt;div align=&quot;left&quot;&gt;&lt;b&gt;&lt;br&gt;&lt;/b&gt;&lt;/div&gt;&lt;div align=&quot;left&quot;&gt;&lt;b&gt;&lt;br&gt;&lt;/b&gt;&lt;/div&gt;&lt;div align=&quot;left&quot;&gt;&lt;b&gt;&lt;br&gt;&lt;/b&gt;&lt;/div&gt;&lt;div align=&quot;left&quot;&gt;&lt;b&gt;&lt;br&gt;&lt;/b&gt;&lt;/div&gt;&lt;div align=&quot;left&quot;&gt;&lt;b&gt;&lt;br&gt;&lt;/b&gt;&lt;/div&gt;&lt;div align=&quot;left&quot;&gt;&lt;b&gt;&lt;br&gt;&lt;/b&gt;&lt;/div&gt;&lt;div align=&quot;left&quot;&gt;&lt;b&gt;&lt;br&gt;&lt;/b&gt;&lt;/div&gt;&lt;div align=&quot;left&quot;&gt;&lt;b&gt;&lt;br&gt;&lt;/b&gt;&lt;/div&gt;&lt;div align=&quot;left&quot;&gt;&lt;b&gt;&lt;br&gt;&lt;/b&gt;&lt;/div&gt;&lt;div align=&quot;left&quot;&gt;&lt;b&gt;&lt;br&gt;&lt;/b&gt;&lt;/div&gt;&lt;div align=&quot;left&quot;&gt;&lt;b&gt;&lt;br&gt;&lt;/b&gt;&lt;/div&gt;&lt;div align=&quot;left&quot;&gt;&lt;b&gt;&lt;br&gt;&lt;/b&gt;&lt;/div&gt;&lt;div align=&quot;left&quot;&gt;&lt;b&gt;&lt;br&gt;&lt;/b&gt;&lt;/div&gt;&lt;div align=&quot;left&quot;&gt;&lt;b&gt;&lt;br&gt;&lt;/b&gt;&lt;/div&gt;&lt;div align=&quot;left&quot;&gt;&lt;b&gt;&lt;br&gt;&lt;/b&gt;&lt;/div&gt;" style="rounded=0;whiteSpace=wrap;html=1;fontSize=14;strokeWidth=1;align=left;" parent="1" vertex="1">
                    <mxGeometry x="80" y="160" width="590" height="350" as="geometry"/>
                </mxCell>
                <mxCell id="B294uS0uLDPBbTm5qbC--34" value="" style="group" parent="1" vertex="1" connectable="0">
                    <mxGeometry x="100" y="290" width="140" height="80" as="geometry"/>
                </mxCell>
                <mxCell id="B294uS0uLDPBbTm5qbC--31" value="" style="rounded=1;whiteSpace=wrap;html=1;fontSize=14;strokeWidth=1;" parent="B294uS0uLDPBbTm5qbC--34" vertex="1">
                    <mxGeometry x="20" y="20" width="120" height="60" as="geometry"/>
                </mxCell>
                <mxCell id="B294uS0uLDPBbTm5qbC--32" value="" style="rounded=1;whiteSpace=wrap;html=1;fontSize=14;strokeWidth=1;" parent="B294uS0uLDPBbTm5qbC--34" vertex="1">
                    <mxGeometry x="10" y="10" width="120" height="60" as="geometry"/>
                </mxCell>
                <mxCell id="B294uS0uLDPBbTm5qbC--33" value="Interaktions-Microservice" style="rounded=1;whiteSpace=wrap;html=1;fontSize=14;strokeWidth=1;" parent="B294uS0uLDPBbTm5qbC--34" vertex="1">
                    <mxGeometry width="120" height="60" as="geometry"/>
                </mxCell>
                <mxCell id="B294uS0uLDPBbTm5qbC--36" value="" style="group" parent="1" vertex="1" connectable="0">
                    <mxGeometry x="305" y="290" width="140" height="80" as="geometry"/>
                </mxCell>
                <mxCell id="B294uS0uLDPBbTm5qbC--37" value="" style="rounded=1;whiteSpace=wrap;html=1;fontSize=14;strokeWidth=1;" parent="B294uS0uLDPBbTm5qbC--36" vertex="1">
                    <mxGeometry x="20" y="20" width="120" height="60" as="geometry"/>
                </mxCell>
                <mxCell id="B294uS0uLDPBbTm5qbC--38" value="" style="rounded=1;whiteSpace=wrap;html=1;fontSize=14;strokeWidth=1;" parent="B294uS0uLDPBbTm5qbC--36" vertex="1">
                    <mxGeometry x="10" y="10" width="120" height="60" as="geometry"/>
                </mxCell>
                <mxCell id="B294uS0uLDPBbTm5qbC--39" value="Kontakt-Microservice" style="rounded=1;whiteSpace=wrap;html=1;fontSize=14;strokeWidth=1;" parent="B294uS0uLDPBbTm5qbC--36" vertex="1">
                    <mxGeometry width="120" height="60" as="geometry"/>
                </mxCell>
                <mxCell id="B294uS0uLDPBbTm5qbC--40" value="" style="group" parent="1" vertex="1" connectable="0">
                    <mxGeometry x="515" y="290" width="140" height="80" as="geometry"/>
                </mxCell>
                <mxCell id="B294uS0uLDPBbTm5qbC--41" value="" style="rounded=1;whiteSpace=wrap;html=1;fontSize=14;strokeWidth=1;" parent="B294uS0uLDPBbTm5qbC--40" vertex="1">
                    <mxGeometry x="20" y="20" width="120" height="60" as="geometry"/>
                </mxCell>
                <mxCell id="B294uS0uLDPBbTm5qbC--42" value="" style="rounded=1;whiteSpace=wrap;html=1;fontSize=14;strokeWidth=1;" parent="B294uS0uLDPBbTm5qbC--40" vertex="1">
                    <mxGeometry x="10" y="10" width="120" height="60" as="geometry"/>
                </mxCell>
                <mxCell id="B294uS0uLDPBbTm5qbC--43" value="Chancen-Microservice" style="rounded=1;whiteSpace=wrap;html=1;fontSize=14;strokeWidth=1;" parent="B294uS0uLDPBbTm5qbC--40" vertex="1">
                    <mxGeometry width="120" height="60" as="geometry"/>
                </mxCell>
                <mxCell id="B294uS0uLDPBbTm5qbC--44" value="&lt;br&gt;Interaktions-Datenbank" style="strokeWidth=1;html=1;shape=mxgraph.flowchart.database;whiteSpace=wrap;fontSize=14;" parent="1" vertex="1">
                    <mxGeometry x="100" y="420" width="120" height="70" as="geometry"/>
                </mxCell>
                <mxCell id="B294uS0uLDPBbTm5qbC--47" value="&lt;br&gt;Kontakt-Datenbank" style="strokeWidth=1;html=1;shape=mxgraph.flowchart.database;whiteSpace=wrap;fontSize=14;" parent="1" vertex="1">
                    <mxGeometry x="305" y="420" width="120" height="70" as="geometry"/>
                </mxCell>
                <mxCell id="B294uS0uLDPBbTm5qbC--48" value="&lt;br&gt;Chancen-Datenbank" style="strokeWidth=1;html=1;shape=mxgraph.flowchart.database;whiteSpace=wrap;fontSize=14;" parent="1" vertex="1">
                    <mxGeometry x="515" y="420" width="120" height="70" as="geometry"/>
                </mxCell>
                <mxCell id="B294uS0uLDPBbTm5qbC--57" value="" style="endArrow=none;html=1;rounded=0;fontSize=14;strokeWidth=2;entryX=0;entryY=0.5;entryDx=0;entryDy=0;exitX=1;exitY=0.5;exitDx=0;exitDy=0;" parent="1" source="B294uS0uLDPBbTm5qbC--39" target="B294uS0uLDPBbTm5qbC--43" edge="1">
                    <mxGeometry width="50" height="50" relative="1" as="geometry">
                        <mxPoint x="655" y="390" as="sourcePoint"/>
                        <mxPoint x="705" y="340" as="targetPoint"/>
                    </mxGeometry>
                </mxCell>
                <mxCell id="B294uS0uLDPBbTm5qbC--60" value="http" style="edgeLabel;html=1;align=center;verticalAlign=middle;resizable=0;points=[];fontSize=14;" parent="B294uS0uLDPBbTm5qbC--57" vertex="1" connectable="0">
                    <mxGeometry x="-0.4667" y="5" relative="1" as="geometry">
                        <mxPoint x="14" y="5" as="offset"/>
                    </mxGeometry>
                </mxCell>
                <mxCell id="B294uS0uLDPBbTm5qbC--58" value="" style="endArrow=none;html=1;rounded=0;fontSize=14;strokeWidth=2;entryX=0;entryY=0.5;entryDx=0;entryDy=0;exitX=1;exitY=0.5;exitDx=0;exitDy=0;" parent="1" source="B294uS0uLDPBbTm5qbC--33" target="B294uS0uLDPBbTm5qbC--39" edge="1">
                    <mxGeometry width="50" height="50" relative="1" as="geometry">
                        <mxPoint x="435" y="370" as="sourcePoint"/>
                        <mxPoint x="495" y="370" as="targetPoint"/>
                    </mxGeometry>
                </mxCell>
                <mxCell id="B294uS0uLDPBbTm5qbC--59" value="http" style="edgeLabel;html=1;align=center;verticalAlign=middle;resizable=0;points=[];fontSize=14;" parent="B294uS0uLDPBbTm5qbC--58" vertex="1" connectable="0">
                    <mxGeometry x="-0.4667" y="1" relative="1" as="geometry">
                        <mxPoint x="14" y="1" as="offset"/>
                    </mxGeometry>
                </mxCell>
                <mxCell id="B294uS0uLDPBbTm5qbC--61" value="" style="endArrow=none;html=1;rounded=0;fontSize=14;strokeWidth=2;entryX=0.5;entryY=0;entryDx=0;entryDy=0;exitX=0.5;exitY=1;exitDx=0;exitDy=0;entryPerimeter=0;" parent="1" source="B294uS0uLDPBbTm5qbC--33" target="B294uS0uLDPBbTm5qbC--44" edge="1">
                    <mxGeometry width="50" height="50" relative="1" as="geometry">
                        <mxPoint x="255" y="370" as="sourcePoint"/>
                        <mxPoint x="315" y="370" as="targetPoint"/>
                    </mxGeometry>
                </mxCell>
                <mxCell id="B294uS0uLDPBbTm5qbC--62" value="mongodb" style="edgeLabel;html=1;align=center;verticalAlign=middle;resizable=0;points=[];fontSize=14;" parent="B294uS0uLDPBbTm5qbC--61" vertex="1" connectable="0">
                    <mxGeometry x="-0.4667" y="1" relative="1" as="geometry">
                        <mxPoint x="-1" y="24" as="offset"/>
                    </mxGeometry>
                </mxCell>
                <mxCell id="B294uS0uLDPBbTm5qbC--63" value="&lt;div&gt;&lt;b&gt;PC&lt;/b&gt;&lt;/div&gt;&lt;div&gt;&lt;b&gt;&lt;br&gt;&lt;/b&gt;&lt;/div&gt;&lt;div&gt;&lt;b&gt;&lt;br&gt;&lt;/b&gt;&lt;/div&gt;&lt;div&gt;&lt;b&gt;&lt;br&gt;&lt;/b&gt;&lt;/div&gt;&lt;div style=&quot;font-size: 4px&quot;&gt;&lt;b&gt;&lt;br&gt;&lt;/b&gt;&lt;/div&gt;" style="rounded=0;whiteSpace=wrap;html=1;fontSize=14;strokeWidth=1;align=left;" parent="1" vertex="1">
                    <mxGeometry x="80" y="60" width="590" height="80" as="geometry"/>
                </mxCell>
                <mxCell id="B294uS0uLDPBbTm5qbC--64" style="edgeStyle=orthogonalEdgeStyle;rounded=0;orthogonalLoop=1;jettySize=auto;html=1;exitX=1;exitY=0.5;exitDx=0;exitDy=0;fontSize=14;strokeWidth=2;" parent="1" source="B294uS0uLDPBbTm5qbC--33" edge="1">
                    <mxGeometry relative="1" as="geometry">
                        <mxPoint x="220" y="320" as="targetPoint"/>
                    </mxGeometry>
                </mxCell>
                <mxCell id="B294uS0uLDPBbTm5qbC--65" value="" style="endArrow=none;html=1;rounded=0;fontSize=14;strokeWidth=2;entryX=0.5;entryY=0;entryDx=0;entryDy=0;exitX=0.5;exitY=1;exitDx=0;exitDy=0;entryPerimeter=0;" parent="1" source="B294uS0uLDPBbTm5qbC--39" target="B294uS0uLDPBbTm5qbC--47" edge="1">
                    <mxGeometry width="50" height="50" relative="1" as="geometry">
                        <mxPoint x="170" y="360" as="sourcePoint"/>
                        <mxPoint x="170" y="430" as="targetPoint"/>
                    </mxGeometry>
                </mxCell>
                <mxCell id="B294uS0uLDPBbTm5qbC--66" value="mongodb" style="edgeLabel;html=1;align=center;verticalAlign=middle;resizable=0;points=[];fontSize=14;" parent="B294uS0uLDPBbTm5qbC--65" vertex="1" connectable="0">
                    <mxGeometry x="-0.4667" y="1" relative="1" as="geometry">
                        <mxPoint x="-1" y="24" as="offset"/>
                    </mxGeometry>
                </mxCell>
                <mxCell id="B294uS0uLDPBbTm5qbC--68" value="" style="endArrow=none;html=1;rounded=0;fontSize=14;strokeWidth=2;entryX=0.5;entryY=0;entryDx=0;entryDy=0;exitX=0.5;exitY=1;exitDx=0;exitDy=0;entryPerimeter=0;" parent="1" source="B294uS0uLDPBbTm5qbC--43" target="B294uS0uLDPBbTm5qbC--48" edge="1">
                    <mxGeometry width="50" height="50" relative="1" as="geometry">
                        <mxPoint x="375" y="360" as="sourcePoint"/>
                        <mxPoint x="375" y="430" as="targetPoint"/>
                    </mxGeometry>
                </mxCell>
                <mxCell id="B294uS0uLDPBbTm5qbC--69" value="mongodb" style="edgeLabel;html=1;align=center;verticalAlign=middle;resizable=0;points=[];fontSize=14;" parent="B294uS0uLDPBbTm5qbC--68" vertex="1" connectable="0">
                    <mxGeometry x="-0.4667" y="1" relative="1" as="geometry">
                        <mxPoint x="-1" y="24" as="offset"/>
                    </mxGeometry>
                </mxCell>
                <mxCell id="B294uS0uLDPBbTm5qbC--70" value="Frontend" style="rounded=1;whiteSpace=wrap;html=1;fontSize=14;strokeWidth=1;" parent="1" vertex="1">
                    <mxGeometry x="250" y="200" width="120" height="60" as="geometry"/>
                </mxCell>
                <mxCell id="B294uS0uLDPBbTm5qbC--71" value="Webbrowser" style="rounded=1;whiteSpace=wrap;html=1;fontSize=14;strokeWidth=1;" parent="1" vertex="1">
                    <mxGeometry x="120" y="70" width="490" height="60" as="geometry"/>
                </mxCell>
                <mxCell id="B294uS0uLDPBbTm5qbC--72" value="" style="endArrow=none;html=1;rounded=0;fontSize=14;strokeWidth=2;entryX=0.25;entryY=1;entryDx=0;entryDy=0;exitX=0.5;exitY=0;exitDx=0;exitDy=0;" parent="1" source="B294uS0uLDPBbTm5qbC--33" target="B294uS0uLDPBbTm5qbC--71" edge="1">
                    <mxGeometry width="50" height="50" relative="1" as="geometry">
                        <mxPoint x="180" y="199" as="sourcePoint"/>
                        <mxPoint x="265" y="199" as="targetPoint"/>
                    </mxGeometry>
                </mxCell>
                <mxCell id="B294uS0uLDPBbTm5qbC--73" value="http" style="edgeLabel;html=1;align=center;verticalAlign=middle;resizable=0;points=[];fontSize=14;" parent="B294uS0uLDPBbTm5qbC--72" vertex="1" connectable="0">
                    <mxGeometry x="-0.4667" y="1" relative="1" as="geometry">
                        <mxPoint x="29" y="-27" as="offset"/>
                    </mxGeometry>
                </mxCell>
                <mxCell id="B294uS0uLDPBbTm5qbC--74" value="" style="endArrow=none;html=1;rounded=0;fontSize=14;strokeWidth=2;entryX=0.75;entryY=1;entryDx=0;entryDy=0;exitX=0.5;exitY=0;exitDx=0;exitDy=0;" parent="1" source="B294uS0uLDPBbTm5qbC--43" target="B294uS0uLDPBbTm5qbC--71" edge="1">
                    <mxGeometry width="50" height="50" relative="1" as="geometry">
                        <mxPoint x="170" y="300" as="sourcePoint"/>
                        <mxPoint x="260" y="140" as="targetPoint"/>
                    </mxGeometry>
                </mxCell>
                <mxCell id="B294uS0uLDPBbTm5qbC--75" value="http" style="edgeLabel;html=1;align=center;verticalAlign=middle;resizable=0;points=[];fontSize=14;" parent="B294uS0uLDPBbTm5qbC--74" vertex="1" connectable="0">
                    <mxGeometry x="-0.4667" y="1" relative="1" as="geometry">
                        <mxPoint x="9" y="-27" as="offset"/>
                    </mxGeometry>
                </mxCell>
                <mxCell id="B294uS0uLDPBbTm5qbC--76" value="" style="endArrow=none;html=1;rounded=0;fontSize=14;strokeWidth=2;entryX=0.39;entryY=1;entryDx=0;entryDy=0;exitX=0.5;exitY=0;exitDx=0;exitDy=0;entryPerimeter=0;" parent="1" source="B294uS0uLDPBbTm5qbC--70" target="B294uS0uLDPBbTm5qbC--71" edge="1">
                    <mxGeometry width="50" height="50" relative="1" as="geometry">
                        <mxPoint x="170" y="300" as="sourcePoint"/>
                        <mxPoint x="260" y="140" as="targetPoint"/>
                    </mxGeometry>
                </mxCell>
                <mxCell id="B294uS0uLDPBbTm5qbC--77" value="http" style="edgeLabel;html=1;align=center;verticalAlign=middle;resizable=0;points=[];fontSize=14;" parent="B294uS0uLDPBbTm5qbC--76" vertex="1" connectable="0">
                    <mxGeometry x="-0.4667" y="1" relative="1" as="geometry">
                        <mxPoint x="14" y="1" as="offset"/>
                    </mxGeometry>
                </mxCell>
                <mxCell id="B294uS0uLDPBbTm5qbC--82" value="" style="endArrow=none;html=1;rounded=0;fontSize=14;strokeWidth=2;exitX=0.5;exitY=0;exitDx=0;exitDy=0;" parent="1" edge="1">
                    <mxGeometry width="50" height="50" relative="1" as="geometry">
                        <mxPoint x="400" y="290" as="sourcePoint"/>
                        <mxPoint x="400" y="130" as="targetPoint"/>
                    </mxGeometry>
                </mxCell>
                <mxCell id="B294uS0uLDPBbTm5qbC--83" value="http" style="edgeLabel;html=1;align=center;verticalAlign=middle;resizable=0;points=[];fontSize=14;" parent="B294uS0uLDPBbTm5qbC--82" vertex="1" connectable="0">
                    <mxGeometry x="-0.4667" y="1" relative="1" as="geometry">
                        <mxPoint x="14" y="-27" as="offset"/>
                    </mxGeometry>
                </mxCell>
            </root>
        </mxGraphModel>
    </diagram>
</mxfile>